<?xml version="1.0" standalone="no"?><!DOCTYPE svg PUBLIC "-//W3C//DTD SVG 1.1//EN" "http://www.w3.org/Graphics/SVG/1.1/DTD/svg11.dtd"><svg t="1766713450073" class="icon" viewBox="0 0 1170 1024" version="1.1" xmlns="http://www.w3.org/2000/svg" p-id="10381" xmlns:xlink="http://www.w3.org/1999/xlink" width="228.515625" height="200"><path d="M1145.504517 750.679199c-0.146278 0-5.266015-9.946917-11.33656-22.014867l-159.589507-317.86251a43.956597 43.956597 0 0 0-35.838157-22.014868h-132.235485a24.794153 24.794153 0 0 0-24.721014 24.647875v41.908702c0 13.530733 11.117143 24.647875 24.721014 24.647875h42.05498c13.603872 0 29.694473 10.020056 35.691879 22.161146l113.146181 227.608866c5.997406 12.14109-0.146278 22.088007-13.823289 22.088007h-179.629619a24.794153 24.794153 0 0 0-24.721014 24.647875v128.944226a24.794153 24.794153 0 0 1-24.721015 24.647875H443.149781a24.794153 24.794153 0 0 1-24.721014-24.647875v-128.944226a24.794153 24.794153 0 0 0-24.794154-24.647875H210.348039c-13.603872 0-19.601278-9.873778-13.384454-21.941729L315.229502 501.640578a44.614848 44.614848 0 0 1 36.130714-21.941728l40.957893 0.073139a24.721014 24.721014 0 0 0 24.721015-24.574736v-41.543007a24.794153 24.794153 0 0 0-24.721015-24.647875h-131.650372a44.102875 44.102875 0 0 0-35.838157 22.088007L64.362404 728.883749c-6.143684 12.067951-10.970864 21.941729-10.824586 21.941729 0.219417 0 0.365695 11.190282 0.365696 24.721014v223.805633c0 13.530733 11.117143 24.647875 24.721014 24.647875h1042.378392a24.794153 24.794153 0 0 0 24.794153-24.647875V775.327075c0-13.530733-0.146278-24.647875-0.365695-24.647876zM373.155666 279.444006h135.746162v379.591906h181.896931V279.444006h143.060071c13.603872 0 17.407105-8.337857 8.337857-18.504191L616.855133 7.585987a21.210338 21.210338 0 0 0-32.620037 0.219417L364.598392 260.720397c-8.92297 10.239473-5.119737 18.650469 8.557274 18.65047z" p-id="10382" fill="#d4d4d4"></path></svg>