<?xml version="1.0" standalone="no"?><!DOCTYPE svg PUBLIC "-//W3C//DTD SVG 1.1//EN" "http://www.w3.org/Graphics/SVG/1.1/DTD/svg11.dtd"><svg t="1769044791370" class="icon" viewBox="0 0 1024 1024" version="1.1" xmlns="http://www.w3.org/2000/svg" p-id="7232" xmlns:xlink="http://www.w3.org/1999/xlink" width="200" height="200"><path d="M257.37 49.01h509.27c40.03 0 71.58 0 96.99 2.07 25.89 2.12 47.54 6.51 67.19 16.52 32.13 16.35 58.22 42.45 74.61 74.55 10 19.65 14.38 41.26 16.48 67.15 2.1 25.37 2.1 56.91 2.1 96.93v411.55c0 40.03 0 71.56-2.1 96.93-2.1 25.89-6.49 47.51-16.48 67.15a170.633 170.633 0 0 1-74.61 74.54c-19.65 10.01-41.3 14.41-67.19 16.52-25.4 2.07-56.95 2.07-96.99 2.07H257.37c-40.03 0-71.58 0-96.99-2.07-25.89-2.12-47.54-6.51-67.19-16.52-32.13-16.35-58.22-42.45-74.61-74.54-10-19.65-14.38-41.27-16.48-67.15C0 789.35 0 757.82 0 717.79V306.23c0-40.03 0-71.56 2.1-96.93 2.1-25.89 6.49-47.51 16.48-67.15A170.655 170.655 0 0 1 93.19 67.6c19.65-10.01 41.3-14.4 67.19-16.52 25.4-2.07 56.95-2.07 96.99-2.07z m-93.04 50.65c-22.87 1.87-37.35 5.44-49.01 11.37a122.119 122.119 0 0 0-53.3 53.25c-5.9 11.63-9.46 26.12-11.36 49-1.9 23.16-1.9 52.7-1.9 94.05v409.39c0 41.34 0 70.89 1.9 94.05 1.9 22.87 5.46 37.36 11.36 49 11.7 22.93 30.38 41.56 53.3 53.25 11.65 5.93 26.14 9.5 49.01 11.37 23.16 1.89 52.76 1.91 94.11 1.91h507.12c41.35 0 70.95-0.02 94.11-1.91 22.87-1.87 37.35-5.44 49.01-11.37a122.119 122.119 0 0 0 53.3-53.25c5.9-11.63 9.46-26.12 11.36-49 1.9-23.16 1.9-52.7 1.9-94.05v-409.4c0-41.34 0-70.89-1.9-94.05-1.9-22.87-5.46-37.36-11.36-49a122.067 122.067 0 0 0-53.3-53.25c-11.65-5.93-26.14-9.5-49.01-11.37-23.16-1.89-52.76-1.91-94.11-1.91H258.44c-41.35 0.01-70.95 0.03-94.11 1.92z" p-id="7233" fill="#d4d4d4"></path><path d="M807.3 452.61c-1.27-12.09-6.73-21.51-16.34-28.25-9.51-6.74-21.89-10.11-37.11-10.11-10.73 0-19.94 1.62-27.6 4.85-7.66 3.23-13.51 7.62-17.6 13.15-4.05 5.54-6.14 11.86-6.19 18.97 0 5.91 1.32 11.03 4 15.37 2.78 4.34 6.49 8.03 11.22 11.08 4.73 2.95 9.95 5.44 15.65 7.48 5.71 2.03 11.51 3.74 17.31 5.12l26.62 6.64c10.68 2.5 21.02 5.86 30.87 10.11 10 4.24 18.87 9.6 26.72 16.06 7.95 6.46 14.24 14.26 18.87 23.4 4.63 9.14 6.92 19.85 6.92 32.12 0 16.61-4.24 31.25-12.78 43.89-8.48 12.55-20.77 22.38-36.82 29.5-15.99 7.01-35.35 10.52-58.08 10.52-22.04 0-41.2-3.42-57.49-10.25-16.14-6.83-28.77-16.8-37.94-29.9-9.07-13.11-13.95-29.08-14.68-47.91h50.57c0.73 9.88 3.8 18.1 9.12 24.65 5.36 6.56 12.34 11.45 20.92 14.68 8.68 3.23 18.38 4.84 29.11 4.84 11.17 0 20.97-1.66 29.35-4.99 8.49-3.41 15.17-8.12 19.94-14.12 4.83-6.09 7.26-13.2 7.36-21.32-0.1-7.39-2.29-13.48-6.53-18.28-4.24-4.89-10.19-8.96-17.85-12.18-7.56-3.32-16.43-6.28-26.62-8.87l-32.28-8.3c-23.36-6-41.79-15.09-55.39-27.28-13.46-12.28-20.24-28.57-20.24-48.87 0-16.71 4.53-31.34 13.6-43.89 9.12-12.55 21.55-22.29 37.25-29.21 15.7-7.02 33.5-10.52 53.35-10.52 20.14 0 37.74 3.51 52.91 10.52 15.21 6.92 27.21 16.57 35.89 28.94 8.68 12.28 13.17 26.4 13.41 42.37H807.3zM402.09 658.22V374.66h106.4c21.8 0 40.08 4.06 54.86 12.18 14.82 8.12 26.09 19.29 33.65 33.51 7.66 14.12 11.51 30.18 11.51 48.19 0 18.18-3.85 34.34-11.51 48.46-7.66 14.12-18.97 25.25-33.94 33.37-14.97 8.03-33.4 12.05-55.3 12.05h-70.51v-42.23h63.59c12.78 0 23.21-2.21 31.31-6.65 8.14-4.43 14.14-10.52 18.04-18.28 3.95-7.75 5.95-16.66 5.95-26.72 0-10.06-2-18.92-5.95-26.59-3.9-7.66-9.95-13.62-18.14-17.86-8.14-4.34-18.63-6.51-31.45-6.51h-47.1v240.64h-51.41zM173.49 658.22V374.66h181.78v43.06H224.89v76.98H342.8v43.06H224.89v120.46h-51.4z" p-id="7234" fill="#d4d4d4"></path></svg>