<?xml version="1.0" standalone="no"?><!DOCTYPE svg PUBLIC "-//W3C//DTD SVG 1.1//EN" "http://www.w3.org/Graphics/SVG/1.1/DTD/svg11.dtd"><svg t="1765424128330" class="icon" viewBox="0 0 1024 1024" version="1.1" xmlns="http://www.w3.org/2000/svg" p-id="4658" xmlns:xlink="http://www.w3.org/1999/xlink" width="200" height="200"><path d="M528 592m-32 0a32 32 0 1 0 64 0 32 32 0 1 0-64 0Z" p-id="4659" fill="#d4d4d4"></path><path d="M393.92 309.44a32 32 0 0 0-29.76-3.2l-80 32a32 32 0 1 0 23.68 59.52L344 384v304a32 32 0 0 0 64 0V336a32 32 0 0 0-14.08-26.56z" p-id="4660" fill="#d4d4d4"></path><path d="M528 432m-32 0a32 32 0 1 0 64 0 32 32 0 1 0-64 0Z" p-id="4661" fill="#d4d4d4"></path><path d="M784 80H240A160 160 0 0 0 80 240v544a160 160 0 0 0 160 160h544a160 160 0 0 0 160-160V240A160 160 0 0 0 784 80z m80 704a80 80 0 0 1-80 80H240a80 80 0 0 1-80-80V240a80 80 0 0 1 80-80h544a80 80 0 0 1 80 80z" p-id="4662" fill="#d4d4d4"></path><path d="M745.92 309.44a32 32 0 0 0-29.76-3.2l-80 32a32 32 0 0 0 23.68 59.52L696 384v304a32 32 0 0 0 64 0V336a32 32 0 0 0-14.08-26.56z" p-id="4663" fill="#d4d4d4"></path></svg>