<?xml version="1.0" standalone="no"?><!DOCTYPE svg PUBLIC "-//W3C//DTD SVG 1.1//EN" "http://www.w3.org/Graphics/SVG/1.1/DTD/svg11.dtd"><svg t="1765338511996" class="icon" viewBox="0 0 1024 1024" version="1.1" xmlns="http://www.w3.org/2000/svg" p-id="18949" xmlns:xlink="http://www.w3.org/1999/xlink" width="200" height="200"><path d="M763.6 0h-629C60.4 0 0 60.4 0 134.6v628.9c0 74.2 60.4 134.6 134.6 134.6h628.9c74.2 0 134.6-60.4 134.6-134.6V134.6C898.2 60.4 837.8 0 763.6 0z m-683 134.6c0-29.8 24.2-54 54-54h628.9c29.8 0 54 24.2 54 54v628.9c0 29.8-24.2 54-54 54H134.6c-29.8 0-54-24.2-54-54V134.6z" fill="#d4d4d4" p-id="18950"></path><path d="M188.7 0v197.5c0 74.2 60.4 134.6 134.6 134.6h251.6c74.2 0 134.6-60.4 134.6-134.6V0H188.7z m440.2 197.5c0 29.8-24.2 54-54 54H323.3c-29.8 0-54-24.2-54-54V80.6H629v116.9z" fill="#d4d4d4" p-id="18951"></path><path d="M543.4 237.8c22.2 0 40.3-18.1 40.3-40.3v-62.9c0-22.2-18.1-40.3-40.3-40.3-22.2 0-40.3 18.1-40.3 40.3v62.9c0.1 22.2 18.1 40.3 40.3 40.3zM983.8 156.3c-25.3-19.7-58.8-30.5-94.4-30.5h-69.6v80.6h69.6c33.5 0 54 16.9 54 26.1v684.8c0 9.2-20.5 26.1-54 26.1h-629c-33.5 0-54-16.9-54-26.1v-56.4h-80.6v56.4c0 28.9 14.3 56 40.2 76.2 25.3 19.7 58.8 30.5 94.4 30.5h628.9c35.6 0 69.1-10.8 94.4-30.5 26-20.2 40.2-47.2 40.2-76.2V232.5c0.1-29-14.2-56-40.1-76.2z" fill="#d4d4d4" p-id="18952"></path></svg>