<?xml version="1.0" standalone="no"?><!DOCTYPE svg PUBLIC "-//W3C//DTD SVG 1.1//EN" "http://www.w3.org/Graphics/SVG/1.1/DTD/svg11.dtd"><svg t="1765338352633" class="icon" viewBox="0 0 1024 1024" version="1.1" xmlns="http://www.w3.org/2000/svg" p-id="17555" xmlns:xlink="http://www.w3.org/1999/xlink" width="200" height="200"><path d="M848.457143 1024H175.542857C80.457143 1024 0 943.542857 0 848.457143V175.542857C0 80.457143 80.457143 0 175.542857 0h680.228572C943.542857 0 1024 80.457143 1024 175.542857v680.228572c0 87.771429-80.457143 168.228571-175.542857 168.228571zM175.542857 73.142857C117.028571 73.142857 73.142857 117.028571 73.142857 175.542857v680.228572c0 51.2 43.885714 95.085714 102.4 95.085714h680.228572c51.2 0 102.4-43.885714 102.4-102.4V175.542857C950.857143 117.028571 906.971429 73.142857 848.457143 73.142857H175.542857z" p-id="17556" fill="#d4d4d4"></path><path d="M475.428571 804.571429h-219.428571c-21.942857 0-36.571429-14.628571-36.571429-36.571429v-219.428571c0-21.942857 14.628571-36.571429 36.571429-36.571429s36.571429 14.628571 36.571429 36.571429V731.428571h182.857142c21.942857 0 36.571429 14.628571 36.571429 36.571429s-14.628571 36.571429-36.571429 36.571429zM768 512c-21.942857 0-36.571429-14.628571-36.571429-36.571429V292.571429H548.571429c-21.942857 0-36.571429-14.628571-36.571429-36.571429s14.628571-36.571429 36.571429-36.571429h219.428571c21.942857 0 36.571429 14.628571 36.571429 36.571429v219.428571c0 21.942857-14.628571 36.571429-36.571429 36.571429z" p-id="17557" fill="#d4d4d4"></path></svg>